#!OML:ASF F:\VICON\USERDATA\INSTALL\rory3\rory3.ASF
:FULLY-SPECIFIED
:DEGREES
352
root 4.81922 16.9595 2.29308 10.704 -9.91222 -1.43039
lowerback 1.86096 -0.413386 -0.646122
upperback -0.824259 -0.570005 -0.0805307
thorax -1.882 -0.277285 0.299306
lowerneck -11.3161 -0.15545 -1.34507
upperneck 38.4216 -0.131464 0.201395
head 15.3602 -0.297739 0.285485
rclavicle -1.82385e-014 0
rhumerus 16.8885 21.2323 -50.4483
rradius 101.102
rwrist -38.519
rhand -5.10679 -42.8216
rfingers 7.12502
rthumb 20.6908 -71.7386
lclavicle -1.82385e-014 0
lhumerus 31.3583 -15.6494 45.4834
lradius 83.5974
lwrist 61.033
lhand -22.9324 -22.2344
lfingers 7.12502
lthumb 3.50837 7.71646
rfemur -55.331 -0.368514 16.3992
rtibia 32.765
rfoot 35.5847 -2.1104
rtoes 2.74273
lfemur -30.1435 3.19818 -29.2056
ltibia 38.1964
lfoot -17.3047 2.92701
ltoes 10.9904
353
root 4.81736 16.9529 2.29185 10.7184 -9.76218 -1.56981
lowerback 1.87818 -0.40595 -0.460556
upperback -0.783299 -0.554966 -0.0722957
thorax -1.85144 -0.272123 0.203187
lowerneck -11.4766 -0.1953 -1.20055
upperneck 38.5446 -0.170628 0.0514914
head 15.4606 -0.313608 0.189576
rclavicle 4.57205e-015 2.78299e-015
rhumerus 16.4168 21.3768 -50.8545
rradius 101.023
rwrist -38.4708
rhand -4.83305 -42.5719
rfingers 7.12502
rthumb 20.9538 -71.4601
lclavicle 4.57205e-015 2.78299e-015
lhumerus 31.0208 -16.2849 45.6955
lradius 83.7409
lwrist 60.8572
lhand -23.7275 -21.8463
lfingers 7.12502
lthumb 2.74049 8.11584
rfemur -55.3348 -0.317077 16.6137
rtibia 32.5861
rfoot 35.6564 -2.43206
rtoes 3.59689
lfemur -30.254 3.18539 -29.0532
ltibia 38.411
lfoot -17.422 2.91468
ltoes 10.6571
354
root 4.81402 16.9458 2.29129 10.6888 -9.74721 -1.7304
lowerback 1.91434 -0.392552 -0.300613
upperback -0.652539 -0.532502 -0.065841
thorax -1.73916 -0.263053 0.119074
lowerneck -11.7904 -0.171345 -1.11405
upperneck 38.607 -0.139927 0.020251
head 15.567 -0.291993 0.165464
rclavicle 1.55052e-014 -2.10712e-014
rhumerus 16.0578 21.5529 -51.2692
rradius 100.983
rwrist -38.413
rhand -4.98583 -42.6339
rfingers 7.12502
rthumb 20.807 -71.5383
lclavicle 1.55052e-014 -2.10712e-014
lhumerus 30.7422 -16.692 45.8428
lradius 83.7778
lwrist 60.7312
lhand -23.8787 -21.8966
lfingers 7.12502
lthumb 2.59446 8.06738
rfemur -55.3283 -0.0352131 16.7887
rtibia 32.4928
rfoot 35.8549 -2.12524
rtoes 2.96106
lfemur -30.3517 3.22722 -28.873
ltibia 38.6538
lfoot -17.5334 3.00208
ltoes 10.4133
355
root 4.81071 16.9287 2.28455 10.5848 -9.73987 -1.55784
lowerback 2.15243 -0.418995 -0.513223
upperback -0.583379 -0.575289 -0.110108
thorax -1.80011 -0.282264 0.195962
lowerneck -12.0073 -0.145907 -1.07646
upperneck 38.6285 -0.0840332 -0.0416531
head 15.6298 -0.271373 0.141114
rclavicle -5.00937e-014 -1.19271e-014
rhumerus 15.7427 21.8937 -51.6454
rradius 100.957
rwrist -38.4396
rhand -5.24293 -42.7289
rfingers 7.12502
rthumb 20.56 -71.6601
lclavicle -5.00937e-014 -1.19271e-014
lhumerus 30.3573 -17.0409 46.0304
lradius 83.8343
lwrist 60.7058
lhand -23.8875 -21.646
lfingers 7.12502
lthumb 2.58603 8.31803
rfemur -55.3599 0.104135 16.6402
rtibia 32.4627
rfoot 35.9833 -1.93202
rtoes 2.55306
lfemur -30.4335 3.25193 -29.0603
ltibia 38.8917
lfoot -17.6131 3.00884
ltoes 10.6049
356
root 4.80558 16.9062 2.27196 10.4871 -9.62154 -1.39704
lowerback 2.41214 -0.438776 -0.694893
upperback -0.590684 -0.609734 -0.142183
thorax -1.95167 -0.297084 0.2685
lowerneck -11.807 -0.184765 -1.13607
upperneck 38.48 -0.130635 -0.0327215
head 15.5068 -0.297153 0.148548
rclavicle 6.60959e-015 -1.35174e-014
rhumerus 15.2616 22.1808 -52.0592
rradius 100.853
rwrist -38.3215
rhand -5.20632 -42.3111
rfingers 7.12502
rthumb 20.5952 -71.2386
lclavicle 6.60959e-015 -1.35174e-014
lhumerus 29.9657 -17.5599 46.3308
lradius 83.9455
lwrist 60.6649
lhand -24.0855 -21.3647
lfingers 7.12502
lthumb 2.39481 8.60162
rfemur -55.4275 0.30487 16.367
rtibia 32.4737
rfoot 36.0961 -2.35115
rtoes 2.71975
lfemur -30.5505 3.27912 -29.2217
ltibia 39.1494
lfoot -17.6723 2.86562
ltoes 11.6231
357
root 4.80551 16.9022 2.2817 10.4276 -9.51982 -1.36032
lowerback 2.0595 -0.421069 -0.605153
upperback -0.457396 -0.580605 -0.190061
thorax -1.61868 -0.285091 0.164361
lowerneck -11.4729 -0.273267 -1.35967
upperneck 38.2877 -0.287881 0.186011
head 15.3325 -0.36452 0.257169
rclavicle 5.31749e-015 -3.57812e-015
rhumerus 14.7027 22.3132 -52.5028
rradius 100.686
rwrist -38.1118
rhand -5.03832 -41.9995
rfingers 7.12502
rthumb 20.7566 -70.9094
lclavicle 5.31749e-015 -3.57812e-015
lhumerus 29.6408 -18.094 46.6939
lradius 83.9888
lwrist 60.3412
lhand -24.0099 -21.801
lfingers 7.12502
lthumb 2.46777 8.16443
rfemur -55.4269 0.277975 16.3844
rtibia 32.48
rfoot 36.08 -1.76995
rtoes 1.4316
lfemur -30.5222 3.37297 -29.2895
ltibia 39.3459
lfoot -17.8414 2.69154
ltoes 12.4593
358
root 4.80039 16.8896 2.28134 10.3525 -9.56568 -1.25916
lowerback 2.09124 -0.383732 -0.721357
upperback -0.409974 -0.53481 -0.246633
thorax -1.58771 -0.261571 0.170004
lowerneck -11.3598 -0.284437 -1.41705
upperneck 38.248 -0.314956 0.253467
head 15.2863 -0.374719 0.291938
rclavicle -1.51076e-014 1.90833e-014
rhumerus 14.1264 22.5493 -53.0298
rradius 100.613
rwrist -37.9718
rhand -4.94972 -42.5151
rfingers 7.12502
rthumb 20.8417 -71.4156
lclavicle -1.51076e-014 1.90833e-014
lhumerus 29.1957 -18.5857 47.0321
lradius 84.0221
lwrist 59.9467
lhand -23.7265 -21.3093
lfingers 7.12502
lthumb 2.7415 8.65283
rfemur -55.4999 0.418588 16.3462
rtibia 32.401
rfoot 36.084 -1.78881
rtoes 2.0617
lfemur -30.5664 3.53402 -29.4097
ltibia 39.5338
lfoot -17.9579 2.52783
ltoes 12.6
359
root 4.79456 16.88 2.27714 10.258 -9.59326 -1.10543
lowerback 2.46216 -0.373368 -0.884097
upperback -0.441117 -0.532102 -0.366694
thorax -1.82752 -0.258273 0.141043
lowerneck -11.5872 -0.255215 -1.26921
upperneck 38.3805 -0.311782 0.261449
head 15.4061 -0.351717 0.269112
rclavicle -3.24516e-014 -1.11319e-014
rhumerus 13.5394 22.8569 -53.7032
rradius 100.62
rwrist -37.861
rhand -5.06116 -42.8794
rfingers 7.12502
rthumb 20.7346 -71.7917
lclavicle -3.24516e-014 -1.11319e-014
lhumerus 28.7893 -19.0706 47.2358
lradius 84.0652
lwrist 59.7918
lhand -23.5771 -19.4342
lfingers 7.12502
lthumb 2.88578 10.5261
rfemur -55.5082 0.618635 16.1741
rtibia 32.2467
rfoot 36.1087 -2.40889
rtoes 3.83735
lfemur -30.5671 3.57548 -29.5519
ltibia 39.6427
lfoot -18.0184 2.47647
ltoes 13.1654
360
root 4.78885 16.8777 2.27599 10.2311 -9.57945 -1.01305
lowerback 2.5208 -0.369681 -1.07125
upperback -0.382758 -0.533952 -0.401729
thorax -1.79923 -0.257706 0.210279
lowerneck -11.9018 -0.283058 -1.22344
upperneck 38.4848 -0.389826 0.333279
head 15.5347 -0.368193 0.278731
rclavicle 2.31087e-014 9.54166e-015
rhumerus 13.1125 23.1066 -54.1724
rradius 100.596
rwrist -37.768
rhand -5.03732 -42.5671
rfingers 7.12502
rthumb 20.7576 -71.4769
lclavicle 2.31087e-014 9.54166e-015
lhumerus 28.4726 -19.444 47.5197
lradius 84.0783
lwrist 59.7581
lhand -23.8096 -19.3794
lfingers 7.12502
lthumb 2.66129 10.5838
rfemur -55.502 0.801398 16.0365
rtibia 32.0745
rfoot 36.0539 -3.24941
rtoes 5.25204
lfemur -30.5991 3.58446 -29.623
ltibia 39.7254
lfoot -18.0676 2.42304
ltoes 13.7003
361
root 4.78632 16.8769 2.28107 10.2069 -9.50413 -0.950455
lowerback 2.09536 -0.403232 -1.03369
upperback -0.0747901 -0.569967 -0.52011
thorax -1.24609 -0.279801 0.0646243
lowerneck -12.1697 -0.285249 -1.1252
upperneck 38.3515 -0.449208 0.421699
head 15.5322 -0.365337 0.288908
rclavicle 1.41137e-014 1.94809e-014
rhumerus 12.9412 23.1366 -54.6637
rradius 100.518
rwrist -37.6855
rhand -4.69063 -42.8274
rfingers 7.12502
rthumb 21.0906 -71.7004
lclavicle 1.41137e-014 1.94809e-014
lhumerus 28.3713 -19.6357 47.5686
lradius 84.1057
lwrist 59.7142
lhand -23.9591 -21.5528
lfingers 7.12502
lthumb 2.51682 8.41206
rfemur -55.4801 0.716269 16.1043
rtibia 31.9566
rfoot 36.1395 -2.60414
rtoes 4.25723
lfemur -30.6196 3.64842 -29.6891
ltibia 39.817
lfoot -18.1526 2.28777
ltoes 13.6424
362
root 4.78423 16.8739 2.28399 10.1714 -9.45293 -0.817309
lowerback 2.43252 -0.39171 -1.19308
upperback -0.290609 -0.567136 -0.542116
thorax -1.6551 -0.274763 0.134914
lowerneck -11.9113 -0.311069 -1.18339
upperneck 38.4271 -0.47126 0.409946
head 15.5088 -0.385681 0.291083
rclavicle 2.09718e-014 -1.39149e-014
rhumerus 11.9956 23.6461 -55.1975
rradius 100.536
rwrist -37.699
rhand -4.81252 -43.1143
rfingers 7.12502
rthumb 20.9735 -72.0003
lclavicle 2.09718e-014 -1.39149e-014
lhumerus 27.5727 -20.3271 48.0934
lradius 84.243
lwrist 59.5102
lhand -23.6341 -22.6222
lfingers 7.12502
lthumb 2.83073 7.33873
rfemur -55.5132 0.571945 16.1663
rtibia 31.9051
rfoot 36.2319 -1.90197
rtoes 3.2054
lfemur -30.6947 3.73008 -29.839
ltibia 40.008
lfoot -18.2621 2.17258
ltoes 13.3496
363
root 4.77618 16.8574 2.27804 10.1993 -9.40769 -0.662596
lowerback 2.33839 -0.376747 -1.33187
upperback -0.231722 -0.550351 -0.63501
thorax -1.54176 -0.266363 0.115907
lowerneck -11.763 -0.360398 -1.24731
upperneck 38.3037 -0.546805 0.462798
head 15.4125 -0.418818 0.313048
rclavicle 3.0911e-014 -2.10712e-014
rhumerus 11.4038 23.8873 -55.7055
rradius 100.47
rwrist -37.7159
rhand -5.77547 -42.5305
rfingers 7.12502
rthumb 20.0482 -71.5162
lclavicle 3.0911e-014 -2.10712e-014
lhumerus 27.1065 -20.7641 48.4592
lradius 84.3052
lwrist 59.4713
lhand -22.5661 -23.715
lfingers 7.12502
lthumb 3.86215 6.22978
rfemur -55.7022 0.684335 16.0216
rtibia 31.8837
rfoot 36.2084 -2.19407
rtoes 3.8512
lfemur -30.9657 3.81442 -29.9951
ltibia 40.3498
lfoot -18.3755 2.07124
ltoes 12.9513
